<?xml version="1.0" encoding="UTF-8"?>
<svg width="48px" height="48px" viewBox="0 0 48 48" version="1.1" xmlns="http://www.w3.org/2000/svg" xmlns:xlink="http://www.w3.org/1999/xlink">
    <!-- Generator: Sketch 49 (51002) - http://www.bohemiancoding.com/sketch -->
    <title>客服icon</title>
    <desc>Created with Sketch.</desc>
    <defs>
        <path d="M8,20 L14,20 L14,36 L8,36 C3.581722,36 5.41083001e-16,32.418278 0,28 L0,28 C-5.41083001e-16,23.581722 3.581722,20 8,20 Z" id="path-1"></path>
        <path d="M34,20 L40,20 C44.418278,20 48,23.581722 48,28 L48,28 C48,32.418278 44.418278,36 40,36 L34,36 L34,20 Z" id="path-2"></path>
        <circle id="path-3" cx="20" cy="44" r="4"></circle>
    </defs>
    <g id="Page-1" stroke="none" stroke-width="1" fill="none" fill-rule="evenodd">
        <g id="1.1.2-商品详情" transform="translate(-60.000000, -1245.000000)">
            <g id="结算栏" transform="translate(0.000000, 1234.000000)">
                <g id="客服icon" transform="translate(60.000000, 11.000000)">
                    <path d="M38,20 L38,15 C38,7.82029825 32.1797017,2 25,2 L23,2 C15.8202983,2 10,7.82029825 10,15 L10,20 L8,20 L8,15 C8,6.71572875 14.7157288,0 23,0 L25,0 C33.2842712,0 40,6.71572875 40,15 L40,20 L38,20 Z" id="Combined-Shape" fill="#868686" fill-rule="nonzero"></path>
                    <g id="Rectangle-7-Copy-2">
                        <use fill-opacity="0" fill="#D8D8D8" fill-rule="evenodd" xlink:href="#path-1"></use>
                        <path stroke="#868686" stroke-width="2" d="M13,35 L13,21 L8,21 C4.13400675,21 1,24.1340068 1,28 C1,31.8659932 4.13400675,35 8,35 L13,35 Z"></path>
                    </g>
                    <g id="Rectangle-7-Copy-3">
                        <use fill-opacity="0" fill="#D8D8D8" fill-rule="evenodd" xlink:href="#path-2"></use>
                        <path stroke="#868686" stroke-width="2" d="M35,21 L35,35 L40,35 C43.8659932,35 47,31.8659932 47,28 C47,24.1340068 43.8659932,21 40,21 L35,21 Z"></path>
                    </g>
                    <path d="M9,35 C9,40 13,44 17,44" id="Path-7" stroke="#868686" stroke-width="2"></path>
                    <g id="Oval">
                        <use fill-opacity="0" fill="#D8D8D8" fill-rule="evenodd" xlink:href="#path-3"></use>
                        <circle stroke="#868686" stroke-width="2" cx="20" cy="44" r="3"></circle>
                    </g>
                    <path d="M16,10 C17,8 20,6 23,6" id="Path-8" stroke="#868686" stroke-width="2" stroke-linecap="round" stroke-linejoin="round"></path>
                    <path d="M27,6 C27,6 29,6 30,7" id="Path-9" stroke="#868686" stroke-width="2" stroke-linecap="round" stroke-linejoin="round"></path>
                </g>
            </g>
        </g>
    </g>
</svg>